ffmpeg started on 2016-12-05 at 15:41:13
Report written to "Output/x264/results/ffmpeg/crowd_run_2160p50faster4500k.log"
Command line:
Tools/ffmpeg/ffmpeg -benchmark -y -i Input/y4m/crowd_run_2160p50.y4m -c:v libx264 -preset faster -b:v 4500k -an Output/x264/encoded/crowd_run_2160p50faster4500k.mkv
ffmpeg version N-82227-gdb23fde Copyright (c) 2000-2016 the FFmpeg developers
  built with gcc 5.4.0 (Ubuntu 5.4.0-6ubuntu1~16.04.2) 20160609
  configuration: --prefix=/home/jaroslav/ffmpeg_build --pkg-config-flags=--static --extra-cflags=-I/home/jaroslav/ffmpeg_build/include --extra-ldflags=-L/home/jaroslav/ffmpeg_build/lib --bindir=/home/jaroslav/bin --enable-gpl --enable-libass --enable-libfdk-aac --enable-libfreetype --enable-libmp3lame --enable-libopus --enable-libtheora --enable-libvorbis --enable-libvpx --enable-libx264 --enable-libx265 --enable-nvenc --enable-libmfx --enable-libxvid --enable-libgsm --enable-libopencore-amrnb --enable-version3 --enable-nonfree
  libavutil      55. 35.100 / 55. 35.100
  libavcodec     57. 66.101 / 57. 66.101
  libavformat    57. 57.100 / 57. 57.100
  libavdevice    57.  2.100 / 57.  2.100
  libavfilter     6. 66.100 /  6. 66.100
  libswscale      4.  3.100 /  4.  3.100
  libswresample   2.  4.100 /  2.  4.100
  libpostproc    54.  2.100 / 54.  2.100
Input #0, yuv4mpegpipe, from 'Input/y4m/crowd_run_2160p50.y4m':
  Duration: 00:00:10.00, start: 0.000000, bitrate: 4976642 kb/s
    Stream #0:0: Video: rawvideo (I420 / 0x30323449), yuv420p(progressive), 3840x2160, SAR 1:1 DAR 16:9, 50 fps, 50 tbr, 50 tbn, 50 tbc
[libx264 @ 0x3d1e1c0] using SAR=1/1
[libx264 @ 0x3d1e1c0] using cpu capabilities: MMX2 SSE2Fast SSSE3 SSE4.2 AVX FMA3 AVX2 LZCNT BMI2
[libx264 @ 0x3d1e1c0] profile High, level 5.2
[libx264 @ 0x3d1e1c0] 264 - core 148 - H.264/MPEG-4 AVC codec - Copyleft 2003-2016 - http://www.videolan.org/x264.html - options: cabac=1 ref=2 deblock=1:0:0 analyse=0x3:0x113 me=hex subme=4 psy=1 psy_rd=1.00:0.00 mixed_ref=0 me_range=16 chroma_me=1 trellis=1 8x8dct=1 cqm=0 deadzone=21,11 fast_pskip=1 chroma_qp_offset=0 threads=6 lookahead_threads=1 sliced_threads=0 nr=0 decimate=1 interlaced=0 bluray_compat=0 constrained_intra=0 bframes=3 b_pyramid=2 b_adapt=1 b_bias=0 direct=1 weightb=1 open_gop=0 weightp=1 keyint=250 keyint_min=25 scenecut=40 intra_refresh=0 rc_lookahead=20 rc=abr mbtree=1 bitrate=4500 ratetol=1.0 qcomp=0.60 qpmin=0 qpmax=69 qpstep=4 ip_ratio=1.40 aq=1:1.00
Output #0, matroska, to 'Output/x264/encoded/crowd_run_2160p50faster4500k.mkv':
  Metadata:
    encoder         : Lavf57.57.100
    Stream #0:0: Video: h264 (libx264) (H264 / 0x34363248), yuv420p, 3840x2160 [SAR 1:1 DAR 16:9], q=-1--1, 4500 kb/s, 50 fps, 1k tbn, 50 tbc
    Metadata:
      encoder         : Lavc57.66.101 libx264
    Side data:
      cpb: bitrate max/min/avg: 0/0/4500000 buffer size: 0 vbv_delay: -1
Stream mapping:
  Stream #0:0 -> #0:0 (rawvideo (native) -> h264 (libx264))
Press [q] to stop, [?] for help
frame=   19 fps=0.0 q=0.0 size=       0kB time=00:00:00.00 bitrate=N/A speed=   0x    frame=   27 fps= 15 q=0.0 size=       0kB time=00:00:00.00 bitrate=N/A speed=   0x    frame=   35 fps= 15 q=50.0 size=       1kB time=00:00:00.04 bitrate= 143.0kbits/s speed=0.0173x    frame=   43 fps= 15 q=57.0 size=       1kB time=00:00:00.20 bitrate=  29.2kbits/s speed=0.0688x    frame=   52 fps= 15 q=57.0 size=       1kB time=00:00:00.38 bitrate=  15.4kbits/s speed=0.11x    frame=   61 fps= 15 q=58.0 size=       1kB time=00:00:00.56 bitrate=  10.5kbits/s speed=0.141x    frame=   70 fps= 16 q=58.0 size=       1kB time=00:00:00.74 bitrate=   7.9kbits/s speed=0.165x    frame=   79 fps= 16 q=59.0 size=       1kB time=00:00:00.92 bitrate=   6.4kbits/s speed=0.184x    frame=   88 fps= 16 q=59.0 size=       1kB time=00:00:01.10 bitrate=   5.3kbits/s speed=0.195x    frame=   97 fps= 16 q=58.0 size=       1kB time=00:00:01.28 bitrate=   4.6kbits/s speed=0.208x    frame=  104 fps= 15 q=58.0 size=       1kB time=00:00:01.42 bitrate=   4.1kbits/s speed=0.21x    frame=  112 fps= 15 q=58.0 size=       1kB time=00:00:01.58 bitrate=   3.7kbits/s speed=0.218x    frame=  121 fps= 16 q=58.0 size=       1kB time=00:00:01.76 bitrate=   3.3kbits/s speed=0.227x    frame=  130 fps= 16 q=58.0 size=       1kB time=00:00:01.94 bitrate=   3.0kbits/s speed=0.235x    frame=  139 fps= 16 q=58.0 size=       1kB time=00:00:02.12 bitrate=   2.8kbits/s speed=0.241x    frame=  148 fps= 16 q=58.0 size=       1kB time=00:00:02.30 bitrate=   2.5kbits/s speed=0.244x    frame=  157 fps= 16 q=58.0 size=       1kB time=00:00:02.48 bitrate=   2.4kbits/s speed=0.25x    frame=  166 fps= 16 q=58.0 size=       1kB time=00:00:02.66 bitrate=   2.2kbits/s speed=0.255x    frame=  175 fps= 16 q=58.0 size=       1kB time=00:00:02.84 bitrate=   2.1kbits/s speed=0.259x    frame=  184 fps= 16 q=58.0 size=       1kB time=00:00:03.02 bitrate=   1.9kbits/s speed=0.261x    frame=  193 fps= 16 q=58.0 size=       1kB time=00:00:03.20 bitrate=   1.8kbits/s speed=0.265x    frame=  202 fps= 16 q=58.0 size=       1kB time=00:00:03.38 bitrate=   1.7kbits/s speed=0.268x    frame=  211 fps= 16 q=58.0 size=       1kB time=00:00:03.56 bitrate=   1.6kbits/s speed=0.272x    frame=  216 fps= 16 q=58.0 size=       1kB time=00:00:03.66 bitrate=   1.6kbits/s speed=0.267x    frame=  225 fps= 16 q=58.0 size=       1kB time=00:00:03.84 bitrate=   1.5kbits/s speed=0.27x    frame=  234 fps= 16 q=58.0 size=       1kB time=00:00:04.02 bitrate=   1.5kbits/s speed=0.273x    frame=  243 fps= 16 q=58.0 size=       1kB time=00:00:04.20 bitrate=   1.4kbits/s speed=0.275x    frame=  252 fps= 16 q=58.0 size=       1kB time=00:00:04.38 bitrate=   1.3kbits/s speed=0.276x    frame=  261 fps= 16 q=58.0 size=       1kB time=00:00:04.56 bitrate=   1.3kbits/s speed=0.278x    frame=  270 fps= 16 q=58.0 size=       1kB time=00:00:04.74 bitrate=   1.2kbits/s speed=0.28x    frame=  277 fps= 15 q=58.0 size=       1kB time=00:00:04.88 bitrate=   1.2kbits/s speed=0.272x    frame=  286 fps= 16 q=58.0 size=    2962kB time=00:00:05.06 bitrate=4795.2kbits/s speed=0.275x    frame=  293 fps= 15 q=58.0 size=    2962kB time=00:00:05.20 bitrate=4666.2kbits/s speed=0.275x    frame=  302 fps= 16 q=58.0 size=    2962kB time=00:00:05.38 bitrate=4510.1kbits/s speed=0.276x    frame=  310 fps= 15 q=58.0 size=    2962kB time=00:00:05.54 bitrate=4379.8kbits/s speed=0.276x    frame=  319 fps= 15 q=58.0 size=    2962kB time=00:00:05.72 bitrate=4242.0kbits/s speed=0.278x    frame=  328 fps= 16 q=58.0 size=    2962kB time=00:00:05.90 bitrate=4112.6kbits/s speed=0.279x    frame=  337 fps= 16 q=58.0 size=    2962kB time=00:00:06.08 bitrate=3990.9kbits/s speed=0.281x    frame=  346 fps= 16 q=58.0 size=    2962kB time=00:00:06.26 bitrate=3876.2kbits/s speed=0.281x    frame=  355 fps= 16 q=58.0 size=    2962kB time=00:00:06.44 bitrate=3767.8kbits/s speed=0.282x    frame=  364 fps= 16 q=58.0 size=    2962kB time=00:00:06.62 bitrate=3665.4kbits/s speed=0.284x    frame=  373 fps= 16 q=58.0 size=    2962kB time=00:00:06.80 bitrate=3568.4kbits/s speed=0.286x    frame=  382 fps= 16 q=58.0 size=    2962kB time=00:00:06.98 bitrate=3476.4kbits/s speed=0.285x    frame=  391 fps= 16 q=58.0 size=    2962kB time=00:00:07.16 bitrate=3389.0kbits/s speed=0.287x    frame=  400 fps= 16 q=58.0 size=    2962kB time=00:00:07.34 bitrate=3305.9kbits/s speed=0.288x    frame=  409 fps= 16 q=58.0 size=    2962kB time=00:00:07.52 bitrate=3226.8kbits/s speed=0.289x    frame=  418 fps= 16 q=58.0 size=    2962kB time=00:00:07.70 bitrate=3151.4kbits/s speed=0.289x    frame=  424 fps= 16 q=59.0 size=    2962kB time=00:00:07.82 bitrate=3103.0kbits/s speed=0.287x    frame=  434 fps= 16 q=59.0 size=    2962kB time=00:00:08.02 bitrate=3025.6kbits/s speed=0.288x    frame=  443 fps= 16 q=59.0 size=    2962kB time=00:00:08.20 bitrate=2959.2kbits/s speed=0.289x    frame=  452 fps= 16 q=59.0 size=    2962kB time=00:00:08.38 bitrate=2895.7kbits/s speed=0.29x    frame=  461 fps= 16 q=59.0 size=    2962kB time=00:00:08.56 bitrate=2834.8kbits/s speed=0.291x    frame=  470 fps= 16 q=59.0 size=    2962kB time=00:00:08.74 bitrate=2776.4kbits/s speed=0.291x    frame=  479 fps= 16 q=59.0 size=    2962kB time=00:00:08.92 bitrate=2720.4kbits/s speed=0.292x    frame=  488 fps= 16 q=59.0 size=    2962kB time=00:00:09.10 bitrate=2666.6kbits/s speed=0.293x    frame=  497 fps= 16 q=59.0 size=    2962kB time=00:00:09.28 bitrate=2614.9kbits/s speed=0.294x    frame=  500 fps= 16 q=59.0 size=    2962kB time=00:00:09.34 bitrate=2598.1kbits/s speed=0.291x    frame=  500 fps= 15 q=-1.0 Lsize=    5995kB time=00:00:09.94 bitrate=4940.5kbits/s speed=0.299x    
video:5991kB audio:0kB subtitle:0kB other streams:0kB global headers:0kB muxing overhead: 0.072571%
bench: utime=104.552s
bench: maxrss=1340688kB
[libx264 @ 0x3d1e1c0] frame I:2     Avg QP:43.84  size:130934
[libx264 @ 0x3d1e1c0] frame P:126   Avg QP:50.82  size: 19760
[libx264 @ 0x3d1e1c0] frame B:372   Avg QP:50.85  size:  9092
[libx264 @ 0x3d1e1c0] consecutive B-frames:  0.8%  0.0%  0.0% 99.2%
[libx264 @ 0x3d1e1c0] mb I  I16..4: 43.5% 51.8%  4.7%
[libx264 @ 0x3d1e1c0] mb P  I16..4: 11.5%  9.6%  0.0%  P16..4: 10.7%  0.9%  0.1%  0.0%  0.0%    skip:67.2%
[libx264 @ 0x3d1e1c0] mb B  I16..4:  0.1%  0.1%  0.0%  B16..8: 12.7%  0.2%  0.0%  direct: 4.8%  skip:82.1%  L0:46.4% L1:53.4% BI: 0.2%
[libx264 @ 0x3d1e1c0] final ratefactor: 50.34
[libx264 @ 0x3d1e1c0] 8x8 transform intra:45.7% inter:96.7%
[libx264 @ 0x3d1e1c0] coded y,uvDC,uvAC intra: 11.7% 49.1% 1.5% inter: 0.8% 4.3% 0.0%
[libx264 @ 0x3d1e1c0] i16 v,h,dc,p: 66% 20% 11%  3%
[libx264 @ 0x3d1e1c0] i8 v,h,dc,ddl,ddr,vr,hd,vl,hu: 12% 10% 54%  5%  3%  4%  4%  4%  3%
[libx264 @ 0x3d1e1c0] i4 v,h,dc,ddl,ddr,vr,hd,vl,hu: 22% 17% 13%  9%  9%  9%  8%  8%  7%
[libx264 @ 0x3d1e1c0] i8c dc,h,v,p: 96%  1%  2%  0%
[libx264 @ 0x3d1e1c0] Weighted P-Frames: Y:1.6% UV:0.0%
[libx264 @ 0x3d1e1c0] ref P L0: 61.9% 38.1%
[libx264 @ 0x3d1e1c0] ref B L0: 83.0% 17.0%
[libx264 @ 0x3d1e1c0] ref B L1: 94.3%  5.7%
[libx264 @ 0x3d1e1c0] kb/s:4907.19
